<?xml version="1.0" encoding="iso-8859-1"?>
<!-- Uploaded to: SVG Repo, www.svgrepo.com, Generator: SVG Repo Mixer Tools -->
<!DOCTYPE svg PUBLIC "-//W3C//DTD SVG 1.1//EN" "http://www.w3.org/Graphics/SVG/1.1/DTD/svg11.dtd">
<svg fill="#000000" version="1.1" id="Capa_1" xmlns="http://www.w3.org/2000/svg" xmlns:xlink="http://www.w3.org/1999/xlink" 
	 width="800px" height="800px" viewBox="0 0 32.001 32.001"
	 xml:space="preserve">
<g>
	<path d="M25.223,27.565c-2.372-0.382-0.726-2.58-0.621-2.829c0.104-0.25-1.23-0.937-1.913-1.25c0.193-0.556,0.694-2.037,0.252-2.6
		c-0.441-0.562-1.046-0.517-1.476-0.729c0.11-0.816,0.038-1.061-0.312-1.686c-1.371-0.708-2.259-2.211-2.737-2.591
		c0.271-0.203,0.59-0.544,1.41-0.759c0.222-0.191-0.021-3.344-0.007-6.762c0.014-3.678,1.263-7.129-0.417-8.088
		C16.008-1.872,7.78,9.038,6.845,18.839c-0.286-0.229-0.658-0.496-1.046-0.661c-0.243-0.915-0.843-2.966-1.595-4.06
		c-0.491-0.715-1.376-0.929-2.035-0.825c-0.471,0.075-0.807,0.305-0.898,0.615c-0.012,0.042-0.02,0.09-0.022,0.141
		c-0.146,0.095-0.248,0.217-0.29,0.358c-0.054,0.183-0.035,0.475,0.361,0.831l0.16-0.178c-0.167-0.15-0.354-0.374-0.292-0.584
		c0.016-0.056,0.054-0.105,0.102-0.152c0.055,0.153,0.167,0.326,0.377,0.515l0.241-0.268c-0.17-0.153-0.269-0.3-0.294-0.427
		c0.061-0.019,0.124-0.036,0.193-0.047c0.533-0.084,1.25,0.086,1.645,0.66c0.58,0.844,1.074,2.367,1.349,3.326
		c-0.111,0.039-0.218,0.096-0.318,0.183c-0.899,0.78,0,2.52,0,2.52s0.695,1.004,1.571,2.248l-2.735-0.49l-0.965,4.456L1.021,27.62
		l0.101,0.217l1.441-0.672l0.941-4.347l1.311,0.235l-1.058-0.042l0.247,4.635L2.703,28.17l0.089,0.223l1.46-0.587L4.01,23.262
		l2.269,0.087c0.175,0.247,0.354,0.5,0.535,0.755l-0.721,1.644l0.96,0.933L6.91,27.647l-1.017,1.354l-0.332,2.125l0.237,0.036
		l0.305-2.042l0.735-0.977l-0.564,3.821l0.238,0.036l0.628-4.257l1.176-1.563c0.46,0.623,0.848,1.127,1.071,1.379
		c0.959,1.079,4.596,4.13,3.793,2.64c-0.3-0.559-1.144-2.191-2.105-4.036c4.131,3.634,6.743,2.706,6.473,2.456
		c-0.354-0.328,0.396-0.624,0.396-0.624s0.78-0.182,0.979,0.521c0.623,1.95,4.385,3.207,4.385,3.207l-1.684-2.122
		c0,0,1.186,0.9,1.519,0.792c1.734-2.774,7.923,0.132,7.923,0.132S27.594,27.948,25.223,27.565z M3.65,14.622
		c-0.454-0.66-1.27-0.858-1.88-0.761c-0.024,0.004-0.043,0.013-0.067,0.017c0.106-0.107,0.292-0.192,0.523-0.229
		c0.547-0.086,1.279,0.087,1.681,0.673c0.658,0.958,1.213,2.755,1.483,3.729c-0.119-0.022-0.237-0.033-0.353-0.022
		C4.761,17.058,4.258,15.505,3.65,14.622z M7.212,27.248l0.097-0.654L6.38,25.69l0.496-1.13l0.014,1.124l1.07,0.571L7.212,27.248z
		 M7.128,25.539l-0.013-1.015c0.414,0.579,0.825,1.147,1.19,1.643L7.128,25.539z"/>
</g>
</svg>